<?xml version="1.0" standalone="no"?>
<svg version="1.0" xmlns="http://www.w3.org/2000/svg"
 width="329.000000pt" height="329.000000pt" viewBox="0 0 329.000000 329.000000"
 preserveAspectRatio="xMidYMid meet">

<g transform="translate(0.000000,329.000000) scale(0.100000,-0.100000)"
fill="#000000" stroke="none">
<path d="M1529 2897 c-299 -260 -552 -574 -698 -866 -266 -530 -230 -1015 102
-1353 116 -119 256 -203 424 -255 82 -25 101 -27 268 -27 167 0 186 2 268 27
342 105 585 357 674 697 32 119 36 325 10 461 -60 310 -209 604 -466 919 -101
124 -305 330 -412 417 l-76 62 -94 -82z m224 -891 c317 -61 546 -335 548 -656
1 -116 -20 -211 -66 -305 -193 -391 -704 -501 -1042 -224 -157 128 -243 313
-243 521 0 190 61 338 195 474 66 67 97 89 175 127 149 73 281 92 433 63z"/>
<path d="M1525 1776 c-134 -33 -241 -119 -302 -244 -37 -74 -38 -79 -38 -186
0 -91 4 -121 23 -166 44 -111 141 -208 252 -252 45 -18 75 -22 165 -22 90 0
120 4 165 22 111 44 208 141 252 252 19 45 23 75 23 166 0 107 -1 112 -38 186
-94 190 -304 293 -502 244z m265 -79 c112 -53 184 -143 216 -267 32 -125 -9
-264 -107 -362 -151 -151 -398 -150 -551 3 -201 201 -124 540 144 640 79 29
223 23 298 -14z"/>
<path d="M1509 1666 c-20 -7 -53 -23 -73 -35 -42 -26 -99 -92 -88 -102 4 -4
46 -18 95 -30 76 -20 89 -21 101 -9 13 14 56 151 56 178 0 16 -45 15 -91 -2z"/>
<path d="M1664 1596 c32 -122 32 -122 144 -94 55 13 92 27 92 35 0 22 -57 78
-109 106 -28 16 -73 31 -100 34 l-50 6 23 -87z"/>
<path d="M1303 1458 c-24 -45 -24 -178 0 -232 l18 -40 69 69 c39 38 70 76 70
85 0 12 -124 150 -136 150 -2 0 -11 -15 -21 -32z"/>
<path d="M1852 1427 c-34 -34 -62 -70 -62 -78 0 -20 118 -149 136 -149 17 0
44 90 44 145 0 54 -27 145 -43 145 -7 0 -41 -28 -75 -63z"/>
<path d="M1575 1395 c-30 -30 -32 -64 -4 -99 39 -50 129 -18 129 45 0 37 -40
79 -75 79 -14 0 -37 -11 -50 -25z"/>
<path d="M1706 1195 c-9 -9 -20 -35 -26 -58 -6 -23 -15 -55 -20 -71 -18 -53
-14 -59 34 -54 24 3 65 16 91 29 49 25 131 108 118 119 -7 6 -162 50 -176 50
-3 0 -13 -7 -21 -15z"/>
<path d="M1417 1180 c-38 -10 -70 -20 -73 -23 -2 -2 13 -24 35 -48 46 -53 117
-91 182 -97 l47 -4 -20 83 c-12 46 -25 90 -31 97 -13 16 -58 14 -140 -8z"/>
</g>
</svg>
